<svg xmlns="http://www.w3.org/2000/svg" width="680" height="198" viewBox="0 0 680 198" role="img" aria-label="Connected Health — linked project">
  <rect width="680" height="198" fill="#ffffff"/>
  <!-- B.well -->
  <rect x="0" y="0" width="680" height="198" rx="14" fill="#ffffff" stroke="#e5e7eb" stroke-width="1"/>
  <path d="M 0 14 Q 0 0 14 0 L 164 0 L 164 198 L 14 198 Q 0 198 0 184 Z" fill="#7c3aed"/>
    <text x="82" y="82.5" text-anchor="middle" fill="#ffffff" font-family="ui-monospace, Menlo, monospace" font-size="8.5" font-weight="700" letter-spacing="0.14em">B.WELL</text>
      <line x1="60" y1="92.5" x2="104" y2="92.5" stroke="#ffffff" stroke-width="1" opacity="0.35"/>
      <text x="82" y="106.5" text-anchor="middle" fill="#ffffff" font-family="system-ui, -apple-system, sans-serif" font-size="12" font-weight="700">65M+</text>
      <text x="82" y="122.5" text-anchor="middle" fill="#ffffff" opacity="0.78" font-family="system-ui, -apple-system, sans-serif" font-size="7">users served</text>
    <text x="184" y="34" fill="#7c3aed" font-family="system-ui, -apple-system, sans-serif" font-size="16" font-weight="600">Connected Health</text>
    <line x1="184" y1="37" x2="331" y2="37" stroke="#7c3aed" stroke-width="1.2"/>
    <text x="184" y="52" fill="#64748b" font-family="system-ui, -apple-system, sans-serif" font-size="8.5">Enterprise healthcare platform</text>
  <line x1="184" y1="62" x2="660" y2="62" stroke="#f3f4f6" stroke-width="1"/>
    <text x="184" y="82" fill="#7c3aed" font-family="system-ui, -apple-system, sans-serif" font-size="9">•</text>
    <text x="194" y="82" fill="#374151" font-family="system-ui, -apple-system, sans-serif" font-size="9">75% faster feature delivery for Walgreens &amp; Samsung</text>
    <text x="184" y="100" fill="#7c3aed" font-family="system-ui, -apple-system, sans-serif" font-size="9">•</text>
    <text x="194" y="100" fill="#374151" font-family="system-ui, -apple-system, sans-serif" font-size="9">Monolith → React micro-frontends &amp; NestJS microservices</text>
    <text x="184" y="118" fill="#7c3aed" font-family="system-ui, -apple-system, sans-serif" font-size="9">•</text>
    <text x="194" y="118" fill="#374151" font-family="system-ui, -apple-system, sans-serif" font-size="9">Releases 2hr → 20min · 85%+ test coverage</text>
    <text x="184" y="136" fill="#7c3aed" font-family="system-ui, -apple-system, sans-serif" font-size="9">•</text>
    <text x="194" y="136" fill="#374151" font-family="system-ui, -apple-system, sans-serif" font-size="9">HIPAA Cognito/SSO, IAM &amp; Kafka event pipelines</text>
    <rect x="184.0" y="157.0" width="39.0" height="17" rx="8" fill="#f9fafb" stroke="#e5e7eb" stroke-width="1"/>
    <text x="203.5" y="168.5" text-anchor="middle" fill="#475569" font-family="ui-monospace, Menlo, monospace" font-size="7.5">React</text>
    <rect x="228.0" y="157.0" width="66.0" height="17" rx="8" fill="#f9fafb" stroke="#e5e7eb" stroke-width="1"/>
    <text x="261.0" y="168.5" text-anchor="middle" fill="#475569" font-family="ui-monospace, Menlo, monospace" font-size="7.5">TypeScript</text>
    <rect x="299.0" y="157.0" width="44.4" height="17" rx="8" fill="#f9fafb" stroke="#e5e7eb" stroke-width="1"/>
    <text x="321.2" y="168.5" text-anchor="middle" fill="#475569" font-family="ui-monospace, Menlo, monospace" font-size="7.5">NestJS</text>
    <rect x="348.4" y="157.0" width="39.0" height="17" rx="8" fill="#f9fafb" stroke="#e5e7eb" stroke-width="1"/>
    <text x="367.9" y="168.5" text-anchor="middle" fill="#475569" font-family="ui-monospace, Menlo, monospace" font-size="7.5">Kafka</text>
    <rect x="392.4" y="157.0" width="32.0" height="17" rx="8" fill="#f9fafb" stroke="#e5e7eb" stroke-width="1"/>
    <text x="408.4" y="168.5" text-anchor="middle" fill="#475569" font-family="ui-monospace, Menlo, monospace" font-size="7.5">AWS</text>
    <rect x="429.4" y="157.0" width="49.8" height="17" rx="8" fill="#f9fafb" stroke="#e5e7eb" stroke-width="1"/>
    <text x="454.3" y="168.5" text-anchor="middle" fill="#475569" font-family="ui-monospace, Menlo, monospace" font-size="7.5">GraphQL</text>
</svg>
