<svg xmlns="http://www.w3.org/2000/svg" width="680" height="180" viewBox="0 0 680 180" role="img" aria-label="Business Management">
  <rect width="680" height="180" fill="#ffffff"/>
  <!-- Kronos -->
  <rect x="0" y="0" width="680" height="180" rx="14" fill="#ffffff" stroke="#e5e7eb" stroke-width="1"/>
  <path d="M 0 14 Q 0 0 14 0 L 164 0 L 164 180 L 14 180 Q 0 180 0 166 Z" fill="#8b5cf6"/>
    <text x="82" y="74.5" text-anchor="middle" fill="#ffffff" font-family="ui-monospace, Menlo, monospace" font-size="8.5" font-weight="700" letter-spacing="0.14em">KRONOS</text>
      <line x1="60" y1="84.5" x2="104" y2="84.5" stroke="#ffffff" stroke-width="1" opacity="0.35"/>
      <text x="82" y="98.5" text-anchor="middle" fill="#ffffff" font-family="system-ui, -apple-system, sans-serif" font-size="10" font-weight="700">Automation</text>
      <text x="82" y="112.5" text-anchor="middle" fill="#ffffff" opacity="0.78" font-family="system-ui, -apple-system, sans-serif" font-size="7">ops &amp; workflows</text>
    <text x="184" y="34" fill="#111827" font-family="system-ui, -apple-system, sans-serif" font-size="16" font-weight="700">Business Management</text>
    <text x="184" y="52" fill="#64748b" font-family="system-ui, -apple-system, sans-serif" font-size="8.5">Spring Boot · office &amp; field teams</text>
  <line x1="184" y1="62" x2="660" y2="62" stroke="#f3f4f6" stroke-width="1"/>
    <text x="184" y="82" fill="#7c3aed" font-family="system-ui, -apple-system, sans-serif" font-size="9">•</text>
    <text x="194" y="82" fill="#374151" font-family="system-ui, -apple-system, sans-serif" font-size="9">85% fewer data entry errors &amp; support calls via automation</text>
    <text x="184" y="100" fill="#7c3aed" font-family="system-ui, -apple-system, sans-serif" font-size="9">•</text>
    <text x="194" y="100" fill="#374151" font-family="system-ui, -apple-system, sans-serif" font-size="9">Invoicing, payments, scheduling &amp; job tracking</text>
    <text x="184" y="118" fill="#7c3aed" font-family="system-ui, -apple-system, sans-serif" font-size="9">•</text>
    <text x="194" y="118" fill="#374151" font-family="system-ui, -apple-system, sans-serif" font-size="9">Zero-downtime deploys · desktop &amp; mobile portals</text>
    <rect x="184.0" y="139.0" width="33.6" height="17" rx="8" fill="#f9fafb" stroke="#e5e7eb" stroke-width="1"/>
    <text x="200.8" y="150.5" text-anchor="middle" fill="#475569" font-family="ui-monospace, Menlo, monospace" font-size="7.5">Java</text>
    <rect x="222.6" y="139.0" width="71.4" height="17" rx="8" fill="#f9fafb" stroke="#e5e7eb" stroke-width="1"/>
    <text x="258.3" y="150.5" text-anchor="middle" fill="#475569" font-family="ui-monospace, Menlo, monospace" font-size="7.5">Spring Boot</text>
    <rect x="299.0" y="139.0" width="66.0" height="17" rx="8" fill="#f9fafb" stroke="#e5e7eb" stroke-width="1"/>
    <text x="332.0" y="150.5" text-anchor="middle" fill="#475569" font-family="ui-monospace, Menlo, monospace" font-size="7.5">PostgreSQL</text>
    <rect x="370.0" y="139.0" width="60.6" height="17" rx="8" fill="#f9fafb" stroke="#e5e7eb" stroke-width="1"/>
    <text x="400.3" y="150.5" text-anchor="middle" fill="#475569" font-family="ui-monospace, Menlo, monospace" font-size="7.5">Bootstrap</text>
    <rect x="435.6" y="139.0" width="44.4" height="17" rx="8" fill="#f9fafb" stroke="#e5e7eb" stroke-width="1"/>
    <text x="457.8" y="150.5" text-anchor="middle" fill="#475569" font-family="ui-monospace, Menlo, monospace" font-size="7.5">Heroku</text>
</svg>
