<svg xmlns="http://www.w3.org/2000/svg" width="680" height="322" viewBox="0 0 680 322" role="img" aria-label="Most used languages">
  <defs>
    <linearGradient id="title" x1="0" y1="0" x2="420" y2="0" gradientUnits="userSpaceOnUse">
      <stop offset="0%" stop-color="#7c3aed"/>
      <stop offset="50%" stop-color="#9333ea"/>
      <stop offset="100%" stop-color="#a855f7"/>
    </linearGradient>
  </defs>

  <rect width="680" height="322" rx="16" fill="#ffffff" stroke="#e5e7eb" stroke-width="1" opacity="0.98"/>

  <text x="24" y="36" fill="url(#title)"
    font-family="ui-monospace, Menlo, monospace" font-size="16" font-weight="700" letter-spacing="0.1em">
    MOST USED LANGUAGES
  </text>
  <text x="24" y="54" fill="#64748b"
    font-family="ui-monospace, Menlo, monospace" font-size="10" letter-spacing="0.08em">
    PUBLIC REPOS · JS &amp; TS FOCUSED STACK
  </text>

  <path d="M 118.00 91.00 A 78 78 0 0 1 192.18 193.10 L 167.45 185.07 A 52 52 0 0 0 118.00 117.00 Z" fill="#3178c6" opacity="0.95"/>
  <path d="M 192.18 193.10 A 78 78 0 0 1 118.00 247.00 L 118.00 221.00 A 52 52 0 0 0 167.45 185.07 Z" fill="#f1e05a" opacity="0.95"/>
  <path d="M 118.00 247.00 A 78 78 0 0 1 54.90 214.85 L 75.93 199.56 A 52 52 0 0 0 118.00 221.00 Z" fill="#61dafb" opacity="0.95"/>
  <path d="M 54.90 214.85 A 78 78 0 0 1 40.62 159.22 L 66.41 162.48 A 52 52 0 0 0 75.93 199.56 Z" fill="#3572A5" opacity="0.95"/>
  <path d="M 40.62 159.22 A 78 78 0 0 1 54.90 123.15 L 75.93 138.44 A 52 52 0 0 0 66.41 162.48 Z" fill="#41b883" opacity="0.95"/>
  <path d="M 54.90 123.15 A 78 78 0 0 1 84.79 98.42 L 95.86 121.95 A 52 52 0 0 0 75.93 138.44 Z" fill="#a855f7" opacity="0.95"/>
  <path d="M 84.79 98.42 A 78 78 0 0 1 118.00 91.00 L 118.00 117.00 A 52 52 0 0 0 95.86 121.95 Z" fill="#e34c26" opacity="0.95"/>
  <circle cx="118" cy="169.0" r="46" fill="#ffffff" stroke="#e5e7eb" stroke-width="1.2"/>
  <text x="118" y="167.0" text-anchor="middle" fill="#7c3aed" font-family="ui-monospace, Menlo, monospace" font-size="11" letter-spacing="0.08em">TOP</text>
  <text x="118" y="183.0" text-anchor="middle" fill="#9333ea" font-family="ui-monospace, Menlo, monospace" font-size="11" letter-spacing="0.08em">LANGS</text>

  <circle cx="260" cy="82" r="5" fill="#3178c6"/>
  <text x="274" y="86" fill="#374151" font-family="ui-monospace, Menlo, monospace" font-size="13" font-weight="600">TypeScript</text>
  <rect x="380" y="76" width="200" height="12" rx="6" fill="#f3f4f6" stroke="#e5e7eb" stroke-width="0.6" opacity="0.9"/>
  <rect x="380" y="76" width="60.0" height="12" rx="6" fill="#3178c6" opacity="0.92"/>
  <rect x="606" y="72" width="44" height="22" rx="11" fill="#ffffff" stroke="#3178c6" stroke-width="1.2" opacity="0.95"/>
  <text x="628" y="87" text-anchor="middle" fill="#1f2937" font-family="ui-monospace, Menlo, monospace" font-size="12" font-weight="700">30%</text>
  <circle cx="260" cy="116" r="5" fill="#f1e05a"/>
  <text x="274" y="120" fill="#374151" font-family="ui-monospace, Menlo, monospace" font-size="13" font-weight="600">JavaScript</text>
  <rect x="380" y="110" width="200" height="12" rx="6" fill="#f3f4f6" stroke="#e5e7eb" stroke-width="0.6" opacity="0.9"/>
  <rect x="380" y="110" width="40.0" height="12" rx="6" fill="#f1e05a" opacity="0.92"/>
  <rect x="606" y="106" width="44" height="22" rx="11" fill="#ffffff" stroke="#f1e05a" stroke-width="1.2" opacity="0.95"/>
  <text x="628" y="121" text-anchor="middle" fill="#1f2937" font-family="ui-monospace, Menlo, monospace" font-size="12" font-weight="700">20%</text>
  <circle cx="260" cy="150" r="5" fill="#61dafb"/>
  <text x="274" y="154" fill="#374151" font-family="ui-monospace, Menlo, monospace" font-size="13" font-weight="600">React</text>
  <rect x="380" y="144" width="200" height="12" rx="6" fill="#f3f4f6" stroke="#e5e7eb" stroke-width="0.6" opacity="0.9"/>
  <rect x="380" y="144" width="30.0" height="12" rx="6" fill="#61dafb" opacity="0.92"/>
  <rect x="606" y="140" width="44" height="22" rx="11" fill="#ffffff" stroke="#61dafb" stroke-width="1.2" opacity="0.95"/>
  <text x="628" y="155" text-anchor="middle" fill="#1f2937" font-family="ui-monospace, Menlo, monospace" font-size="12" font-weight="700">15%</text>
  <circle cx="260" cy="184" r="5" fill="#3572A5"/>
  <text x="274" y="188" fill="#374151" font-family="ui-monospace, Menlo, monospace" font-size="13" font-weight="600">Python</text>
  <rect x="380" y="178" width="200" height="12" rx="6" fill="#f3f4f6" stroke="#e5e7eb" stroke-width="0.6" opacity="0.9"/>
  <rect x="380" y="178" width="24.0" height="12" rx="6" fill="#3572A5" opacity="0.92"/>
  <rect x="606" y="174" width="44" height="22" rx="11" fill="#ffffff" stroke="#3572A5" stroke-width="1.2" opacity="0.95"/>
  <text x="628" y="189" text-anchor="middle" fill="#1f2937" font-family="ui-monospace, Menlo, monospace" font-size="12" font-weight="700">12%</text>
  <circle cx="260" cy="218" r="5" fill="#41b883"/>
  <text x="274" y="222" fill="#374151" font-family="ui-monospace, Menlo, monospace" font-size="13" font-weight="600">Vue</text>
  <rect x="380" y="212" width="200" height="12" rx="6" fill="#f3f4f6" stroke="#e5e7eb" stroke-width="0.6" opacity="0.9"/>
  <rect x="380" y="212" width="16.0" height="12" rx="6" fill="#41b883" opacity="0.92"/>
  <rect x="606" y="208" width="44" height="22" rx="11" fill="#ffffff" stroke="#41b883" stroke-width="1.2" opacity="0.95"/>
  <text x="628" y="223" text-anchor="middle" fill="#1f2937" font-family="ui-monospace, Menlo, monospace" font-size="12" font-weight="700">8%</text>
  <circle cx="260" cy="252" r="5" fill="#a855f7"/>
  <text x="274" y="256" fill="#374151" font-family="ui-monospace, Menlo, monospace" font-size="13" font-weight="600">CSS</text>
  <rect x="380" y="246" width="200" height="12" rx="6" fill="#f3f4f6" stroke="#e5e7eb" stroke-width="0.6" opacity="0.9"/>
  <rect x="380" y="246" width="16.0" height="12" rx="6" fill="#a855f7" opacity="0.92"/>
  <rect x="606" y="242" width="44" height="22" rx="11" fill="#ffffff" stroke="#a855f7" stroke-width="1.2" opacity="0.95"/>
  <text x="628" y="257" text-anchor="middle" fill="#1f2937" font-family="ui-monospace, Menlo, monospace" font-size="12" font-weight="700">8%</text>
  <circle cx="260" cy="286" r="5" fill="#e34c26"/>
  <text x="274" y="290" fill="#374151" font-family="ui-monospace, Menlo, monospace" font-size="13" font-weight="600">HTML</text>
  <rect x="380" y="280" width="200" height="12" rx="6" fill="#f3f4f6" stroke="#e5e7eb" stroke-width="0.6" opacity="0.9"/>
  <rect x="380" y="280" width="14.0" height="12" rx="6" fill="#e34c26" opacity="0.92"/>
  <rect x="606" y="276" width="44" height="22" rx="11" fill="#ffffff" stroke="#e34c26" stroke-width="1.2" opacity="0.95"/>
  <text x="628" y="291" text-anchor="middle" fill="#1f2937" font-family="ui-monospace, Menlo, monospace" font-size="12" font-weight="700">7%</text>
</svg>
